<svg width="30" height="30" viewBox="0 0 30 30" fill="none" xmlns="http://www.w3.org/2000/svg">
<g opacity="0.3">
<path d="M8.1395 6.94194C8.378 7.197 8.378 7.61094 8.1395 7.86589L2.0842 14.347H29.3895C29.7266 14.347 30 14.6396 30 15.0004C30 15.3612 29.7266 15.6539 29.3895 15.6539H2.0843L8.1397 22.1351C8.378 22.3901 8.3781 22.8039 8.1396 23.0591C7.9012 23.3143 7.5146 23.3143 7.2762 23.059L0.178801 15.4624C0.0596006 15.3349 0 15.1676 0 15.0004C0 14.8333 0.0595998 14.666 0.1789 14.5385L7.2763 6.94194C7.5146 6.68667 7.9012 6.68667 8.1395 6.94194Z" fill="#222222"/>
</g>
</svg>
