<svg width="30" height="30" viewBox="0 0 30 30" fill="none" xmlns="http://www.w3.org/2000/svg">
<g opacity="0.3">
<path d="M21.8605 6.94194C21.622 7.197 21.622 7.61094 21.8605 7.86589L27.9158 14.347H0.610499C0.273402 14.347 0 14.6396 0 15.0004C0 15.3612 0.273402 15.6539 0.610499 15.6539H27.9157L21.8603 22.1351C21.622 22.3901 21.6219 22.8039 21.8604 23.0591C22.0988 23.3143 22.4854 23.3143 22.7238 23.059L29.8212 15.4624C29.9404 15.3349 30 15.1676 30 15.0004C30 14.8333 29.9404 14.666 29.8211 14.5385L22.7237 6.94194C22.4854 6.68667 22.0988 6.68667 21.8605 6.94194Z" fill="#222222"/>
</g>
</svg>
