<svg width="606" height="70" viewBox="0 0 606 70" fill="none" xmlns="http://www.w3.org/2000/svg">
    <path d="M0.97229 50.0002V1.26815H44.6823V50.0002H32.2203V12.1492H13.4343V50.0002H0.97229Z" fill="black" fill-opacity="0.02"/>
    <path d="M85.2114 50.9302C81.4294 50.9302 78.0814 50.0932 75.1674 48.4192C72.3154 46.6832 70.0834 44.3582 68.4714 41.4442V69.8092H56.0094V1.26815H66.8904V9.63816C68.7504 6.78616 71.1064 4.55415 73.9584 2.94215C76.8104 1.26815 80.0654 0.431152 83.7234 0.431152C87.0094 0.431152 90.0164 1.08215 92.7444 2.38415C95.5344 3.68615 97.9524 5.51515 99.9984 7.87115C102.044 10.1652 103.625 12.8312 104.741 15.8692C105.919 18.8452 106.508 22.0692 106.508 25.5412C106.508 30.2532 105.578 34.5312 103.718 38.3752C101.92 42.2192 99.4094 45.2882 96.1854 47.5822C93.0234 49.8142 89.3654 50.9302 85.2114 50.9302ZM81.0264 40.3282C82.9484 40.3282 84.6844 39.9252 86.2344 39.1192C87.7844 38.3132 89.1174 37.2282 90.2334 35.8642C91.4114 34.4382 92.2794 32.8572 92.8374 31.1212C93.4574 29.3232 93.7674 27.4632 93.7674 25.5412C93.7674 23.4952 93.4264 21.6042 92.7444 19.8682C92.1244 18.1322 91.1944 16.6132 89.9544 15.3112C88.7144 13.9472 87.2574 12.8932 85.5834 12.1492C83.9714 11.4052 82.2044 11.0332 80.2824 11.0332C79.1044 11.0332 77.8954 11.2502 76.6554 11.6842C75.4774 12.0562 74.3304 12.6142 73.2144 13.3582C72.0984 14.1022 71.1064 14.9702 70.2384 15.9622C69.4324 16.9542 68.8434 18.0392 68.4714 19.2172V30.6562C69.2154 32.4542 70.2074 34.0972 71.4474 35.5852C72.7494 37.0732 74.2374 38.2512 75.9114 39.1192C77.5854 39.9252 79.2904 40.3282 81.0264 40.3282Z" fill="black" fill-opacity="0.02"/>
    <path d="M137.551 50.9302C133.645 50.9302 130.111 50.2792 126.949 48.9772C123.787 47.6132 121.09 45.7842 118.858 43.4902C116.626 41.1342 114.89 38.4682 113.65 35.4922C112.472 32.4542 111.883 29.2612 111.883 25.9132C111.883 21.2632 112.906 17.0162 114.952 13.1722C117.06 9.32815 120.036 6.25915 123.88 3.96515C127.786 1.60915 132.374 0.431152 137.644 0.431152C142.976 0.431152 147.533 1.60915 151.315 3.96515C155.097 6.25915 157.98 9.32815 159.964 13.1722C162.01 16.9542 163.033 21.0462 163.033 25.4482C163.033 26.1922 163.002 26.9672 162.94 27.7732C162.878 28.5172 162.816 29.1372 162.754 29.6332H125.089C125.337 32.1132 126.05 34.2832 127.228 36.1432C128.468 38.0032 130.018 39.4292 131.878 40.4212C133.8 41.3512 135.846 41.8162 138.016 41.8162C140.496 41.8162 142.821 41.2272 144.991 40.0492C147.223 38.8092 148.742 37.1972 149.548 35.2132L160.243 38.1892C159.065 40.6692 157.36 42.8702 155.128 44.7922C152.958 46.7142 150.385 48.2332 147.409 49.3492C144.433 50.4032 141.147 50.9302 137.551 50.9302ZM124.81 21.7282H150.292C150.044 19.2482 149.331 17.1092 148.153 15.3112C147.037 13.4512 145.549 12.0252 143.689 11.0332C141.829 9.97915 139.752 9.45216 137.458 9.45216C135.226 9.45216 133.18 9.97915 131.32 11.0332C129.522 12.0252 128.034 13.4512 126.856 15.3112C125.74 17.1092 125.058 19.2482 124.81 21.7282Z" fill="black" fill-opacity="0.02"/>
    <path d="M170.625 50.0002V1.26815H183.645L198.897 29.4472L214.242 1.26815H227.076V50.0002H215.265V18.4732L202.803 41.3512H194.991L182.436 18.4732V50.0002H170.625Z" fill="black" fill-opacity="0.02"/>
    <path d="M238.558 50.0002V1.26815H251.02V16.6132H262.087C267.915 16.6132 272.379 18.1012 275.479 21.0772C278.579 24.0532 280.129 27.9902 280.129 32.8882C280.129 36.1742 279.478 39.1192 278.176 41.7232C276.874 44.3272 274.952 46.3732 272.41 47.8612C269.868 49.2872 266.706 50.0002 262.924 50.0002H238.558ZM251.02 40.5142H260.971C262.645 40.5142 264.009 40.1732 265.063 39.4912C266.179 38.8092 266.985 37.9102 267.481 36.7942C268.039 35.6782 268.318 34.4072 268.318 32.9812C268.318 31.6172 268.07 30.4082 267.574 29.3542C267.078 28.2382 266.272 27.3702 265.156 26.7502C264.102 26.0682 262.676 25.7272 260.878 25.7272H251.02V40.5142Z" fill="black" fill-opacity="0.02"/>
    <path d="M310.563 50.9302C306.657 50.9302 303.123 50.2792 299.961 48.9772C296.799 47.6132 294.102 45.7842 291.87 43.4902C289.638 41.1342 287.902 38.4682 286.662 35.4922C285.484 32.4542 284.895 29.2612 284.895 25.9132C284.895 21.2632 285.918 17.0162 287.964 13.1722C290.072 9.32815 293.048 6.25915 296.892 3.96515C300.798 1.60915 305.386 0.431152 310.656 0.431152C315.988 0.431152 320.545 1.60915 324.327 3.96515C328.109 6.25915 330.992 9.32815 332.976 13.1722C335.022 16.9542 336.045 21.0462 336.045 25.4482C336.045 26.1922 336.014 26.9672 335.952 27.7732C335.89 28.5172 335.828 29.1372 335.766 29.6332H298.101C298.349 32.1132 299.062 34.2832 300.24 36.1432C301.48 38.0032 303.03 39.4292 304.89 40.4212C306.812 41.3512 308.858 41.8162 311.028 41.8162C313.508 41.8162 315.833 41.2272 318.003 40.0492C320.235 38.8092 321.754 37.1972 322.56 35.2132L333.255 38.1892C332.077 40.6692 330.372 42.8702 328.14 44.7922C325.97 46.7142 323.397 48.2332 320.421 49.3492C317.445 50.4032 314.159 50.9302 310.563 50.9302ZM297.822 21.7282H323.304C323.056 19.2482 322.343 17.1092 321.165 15.3112C320.049 13.4512 318.561 12.0252 316.701 11.0332C314.841 9.97915 312.764 9.45216 310.47 9.45216C308.238 9.45216 306.192 9.97915 304.332 11.0332C302.534 12.0252 301.046 13.4512 299.868 15.3112C298.752 17.1092 298.07 19.2482 297.822 21.7282Z" fill="black" fill-opacity="0.02"/>
    <path d="M372.839 50.9302C369.057 50.9302 365.709 50.0932 362.795 48.4192C359.943 46.6832 357.711 44.3582 356.099 41.4442V69.8092H343.637V1.26815H354.518V9.63816C356.378 6.78616 358.734 4.55415 361.586 2.94215C364.438 1.26815 367.693 0.431152 371.351 0.431152C374.637 0.431152 377.644 1.08215 380.372 2.38415C383.162 3.68615 385.58 5.51515 387.626 7.87115C389.672 10.1652 391.253 12.8312 392.369 15.8692C393.547 18.8452 394.136 22.0692 394.136 25.5412C394.136 30.2532 393.206 34.5312 391.346 38.3752C389.548 42.2192 387.037 45.2882 383.813 47.5822C380.651 49.8142 376.993 50.9302 372.839 50.9302ZM368.654 40.3282C370.576 40.3282 372.312 39.9252 373.862 39.1192C375.412 38.3132 376.745 37.2282 377.861 35.8642C379.039 34.4382 379.907 32.8572 380.465 31.1212C381.085 29.3232 381.395 27.4632 381.395 25.5412C381.395 23.4952 381.054 21.6042 380.372 19.8682C379.752 18.1322 378.822 16.6132 377.582 15.3112C376.342 13.9472 374.885 12.8932 373.211 12.1492C371.599 11.4052 369.832 11.0332 367.91 11.0332C366.732 11.0332 365.523 11.2502 364.283 11.6842C363.105 12.0562 361.958 12.6142 360.842 13.3582C359.726 14.1022 358.734 14.9702 357.866 15.9622C357.06 16.9542 356.471 18.0392 356.099 19.2172V30.6562C356.843 32.4542 357.835 34.0972 359.075 35.5852C360.377 37.0732 361.865 38.2512 363.539 39.1192C365.213 39.9252 366.918 40.3282 368.654 40.3282Z" fill="black" fill-opacity="0.02"/>
    <path d="M413.833 50.0002V12.1492H398.395V1.26815H441.826V12.1492H426.295V50.0002H413.833Z" fill="black" fill-opacity="0.02"/>
    <path d="M448.807 50.0002V1.36116H461.269V33.3532L483.124 1.26815H494.47V50.0002H482.008V18.7522L460.432 50.0002H448.807Z" fill="black" fill-opacity="0.02"/>
    <path d="M505.842 50.0002V1.26815H549.552V50.0002H537.09V12.1492H518.304V50.0002H505.842Z" fill="black" fill-opacity="0.02"/>
    <path d="M583.572 50.9302C579.604 50.9302 576.039 50.2792 572.877 48.9772C569.715 47.6132 567.018 45.7532 564.786 43.3972C562.554 40.9792 560.818 38.2512 559.578 35.2132C558.4 32.1752 557.811 28.9822 557.811 25.6342C557.811 21.0462 558.834 16.8612 560.88 13.0792C562.988 9.23515 565.964 6.16615 569.808 3.87215C573.652 1.57815 578.209 0.431152 583.479 0.431152C588.749 0.431152 593.275 1.57815 597.057 3.87215C600.839 6.16615 603.66 9.17315 605.52 12.8932L593.337 16.6132C592.283 14.8152 590.888 13.4512 589.152 12.5212C587.416 11.5292 585.494 11.0332 583.386 11.0332C581.03 11.0332 578.86 11.6532 576.876 12.8932C574.954 14.0712 573.435 15.7762 572.319 18.0082C571.203 20.1782 570.645 22.7202 570.645 25.6342C570.645 28.4862 571.203 31.0282 572.319 33.2602C573.497 35.4302 575.047 37.1662 576.969 38.4682C578.891 39.7082 581.03 40.3282 583.386 40.3282C584.874 40.3282 586.269 40.0802 587.571 39.5842C588.935 39.0882 590.144 38.4062 591.198 37.5382C592.252 36.6702 593.027 35.6782 593.523 34.5622L605.706 38.2822C604.59 40.7002 602.947 42.8702 600.777 44.7922C598.669 46.7142 596.158 48.2332 593.244 49.3492C590.392 50.4032 587.168 50.9302 583.572 50.9302Z" fill="black" fill-opacity="0.02"/>
</svg>
