<svg width="120" height="13" viewBox="0 0 120 13" fill="none" xmlns="http://www.w3.org/2000/svg">
    <path
        d="M18.1821 8.70179C22.9052 8.70179 24.3117 6.76049 24.3117 4.46158V4.18912C24.3117 1.85615 22.9399 0 18.1821 0H7.41632V12.6695H12.3478V8.70179H18.1821ZM12.3478 3.16738H17.5918C18.7378 3.16738 19.224 3.61013 19.224 4.32535V4.37644C19.224 5.07462 18.7204 5.5344 17.5918 5.5344H12.3478V3.16738Z"
        fill="white"/>
    <path
        d="M30.2546 8.32715H34.9777C36.9225 8.32715 37.5997 9.05939 37.5997 10.5239V12.0054C37.5997 12.363 37.6518 12.5333 37.756 12.6695H42.7916V12.5844C42.6701 12.363 42.5485 12.0395 42.5485 11.154V9.28077C42.5485 7.64599 41.4719 6.62426 39.8918 6.26665C40.8642 6.02824 42.4964 5.27897 42.4964 3.43984V3.25253C42.4964 1.19203 40.8468 0 37.0614 0H25.3232V12.6695H30.2546V8.32715ZM30.2546 3.08224H35.9154C37.0093 3.08224 37.4087 3.55905 37.4087 4.15506V4.17209C37.4087 4.78513 36.9919 5.26194 35.9154 5.26194H30.2546V3.08224Z"
        fill="white"/>
    <path d="M43.8066 0V12.6695H58.2363V9.50215H48.6686V7.7652H57.9063V4.68296H48.6686V3.09927H58.0974V0H43.8066Z" fill="white"/>
    <path
        d="M58.518 12.6695H63.3279V4.7681L67.8426 12.6695H70.3604L74.8925 4.7681V12.6695H79.7719V0H73.2776L69.2491 7.1181L65.2901 0H58.518V12.6695Z"
        fill="white"/>
    <path d="M86.2566 12.6695V0H81.3425V12.6695H86.2566Z" fill="white"/>
    <path d="M87.8202 0V12.6695H102.25V9.50215H92.6822V7.7652H101.92V4.68296H92.6822V3.09927H102.111V0H87.8202Z" fill="white"/>
    <path
        d="M107.463 8.32715H112.186C114.131 8.32715 114.808 9.05939 114.808 10.5239V12.0054C114.808 12.363 114.86 12.5333 114.964 12.6695H120V12.5844C119.878 12.363 119.757 12.0395 119.757 11.154V9.28077C119.757 7.64599 118.68 6.62426 117.1 6.26665C118.073 6.02824 119.705 5.27897 119.705 3.43984V3.25253C119.705 1.19203 118.055 0 114.27 0H102.532V12.6695H107.463V8.32715ZM107.463 3.08224H113.124C114.218 3.08224 114.617 3.55905 114.617 4.15506V4.17209C114.617 4.78513 114.2 5.26194 113.124 5.26194H107.463V3.08224Z"
        fill="white"/>
    <rect width="5.66524" height="12.6695" rx="2.83262" fill="#377BFF"/>
</svg>
