<svg width="136" height="16" viewBox="0 0 136 16" fill="none" xmlns="http://www.w3.org/2000/svg">
    <path d="M13.005 10.9892C18.7104 10.9892 20.4095 8.53763 20.4095 5.63441V5.29032C20.4095 2.34408 18.7524 0 13.005 0H0V16H5.95713V10.9892H13.005ZM5.95713 4H12.2918C13.6762 4 14.2636 4.55914 14.2636 5.46237V5.52688C14.2636 6.4086 13.6553 6.98925 12.2918 6.98925H5.95713V4Z" fill="black" fill-opacity="0.2"/>
    <path d="M27.5884 10.5161H33.2939C35.6432 10.5161 36.4612 11.4409 36.4612 13.2903V15.1613C36.4612 15.6129 36.5241 15.828 36.65 16H42.733V15.8925C42.5862 15.6129 42.4393 15.2043 42.4393 14.086V11.7204C42.4393 9.65591 41.1388 8.36559 39.23 7.91398C40.4047 7.6129 42.3764 6.66667 42.3764 4.34409V4.10753C42.3764 1.50538 40.3837 0 35.811 0H21.6313V16H27.5884V10.5161ZM27.5884 3.89247H34.4266C35.748 3.89247 36.2305 4.49462 36.2305 5.24731V5.26882C36.2305 6.04301 35.7271 6.64516 34.4266 6.64516H27.5884V3.89247Z" fill="black" fill-opacity="0.2"/>
    <path d="M43.9591 0V16H61.39V12H49.8323V9.80645H60.9915V5.91398H49.8323V3.91398H61.2222V0H43.9591Z" fill="black" fill-opacity="0.2"/>
    <path d="M61.7304 16H67.5407V6.02151L72.9944 16H76.0359L81.5106 6.02151V16H87.4048V0H79.5598L74.6934 8.98925L69.9109 0H61.7304V16Z" fill="black" fill-opacity="0.2"/>
    <path d="M95.2382 16V0H89.3021V16H95.2382Z" fill="black" fill-opacity="0.2"/>
    <path d="M97.1271 0V16H114.558V12H103V9.80645H114.159V5.91398H103V3.91398H114.39V0H97.1271Z" fill="black" fill-opacity="0.2"/>
    <path d="M120.855 10.5161H126.561C128.91 10.5161 129.728 11.4409 129.728 13.2903V15.1613C129.728 15.6129 129.791 15.828 129.917 16H136V15.8925C135.853 15.6129 135.706 15.2043 135.706 14.086V11.7204C135.706 9.65591 134.406 8.36559 132.497 7.91398C133.672 7.6129 135.643 6.66667 135.643 4.34409V4.10753C135.643 1.50538 133.651 0 129.078 0H114.898V16H120.855V10.5161ZM120.855 3.89247H127.694C129.015 3.89247 129.497 4.49462 129.497 5.24731V5.26882C129.497 6.04301 128.994 6.64516 127.694 6.64516H120.855V3.89247Z" fill="black" fill-opacity="0.2"/>
</svg>
