<svg width="120" height="13" viewBox="0 0 120 13" fill="none" xmlns="http://www.w3.org/2000/svg">
<path d="M18.1821 8.70179C22.9052 8.70179 24.3117 6.76049 24.3117 4.46158V4.18912C24.3117 1.85615 22.9399 0 18.1821 0H7.41626V12.6695H12.3477V8.70179H18.1821ZM12.3477 3.16738H17.5917C18.7377 3.16738 19.2239 3.61013 19.2239 4.32535V4.37644C19.2239 5.07462 18.7204 5.5344 17.5917 5.5344H12.3477V3.16738Z" fill="black"/>
<path d="M30.2546 8.32715H34.9776C36.9224 8.32715 37.5996 9.05939 37.5996 10.5239V12.0054C37.5996 12.363 37.6517 12.5333 37.7559 12.6695H42.7915V12.5844C42.67 12.363 42.5484 12.0395 42.5484 11.154V9.28077C42.5484 7.64599 41.4719 6.62426 39.8917 6.26665C40.8641 6.02824 42.4963 5.27897 42.4963 3.43984V3.25253C42.4963 1.19203 40.8467 0 37.0613 0H25.3231V12.6695H30.2546V8.32715ZM30.2546 3.08224H35.9153C37.0092 3.08224 37.4086 3.55905 37.4086 4.15506V4.17209C37.4086 4.78513 36.9919 5.26194 35.9153 5.26194H30.2546V3.08224Z" fill="black"/>
<path d="M43.8065 0V12.6695H58.2362V9.50215H48.6685V7.76519H57.9063V4.68296H48.6685V3.09927H58.0973V0H43.8065Z" fill="black"/>
<path d="M58.518 12.6695H63.3279V4.7681L67.8426 12.6695H70.3604L74.8924 4.7681V12.6695H79.7718V0H73.2776L69.2491 7.11809L65.29 0H58.518V12.6695Z" fill="black"/>
<path d="M86.2565 12.6695V0H81.3424V12.6695H86.2565Z" fill="black"/>
<path d="M87.8201 0V12.6695H102.25V9.50215H92.6821V7.76519H101.92V4.68296H92.6821V3.09927H102.111V0H87.8201Z" fill="black"/>
<path d="M107.463 8.32715H112.186C114.131 8.32715 114.808 9.05939 114.808 10.5239V12.0054C114.808 12.363 114.86 12.5333 114.964 12.6695H120V12.5844C119.878 12.363 119.757 12.0395 119.757 11.154V9.28077C119.757 7.64599 118.68 6.62426 117.1 6.26665C118.073 6.02824 119.705 5.27897 119.705 3.43984V3.25253C119.705 1.19203 118.055 0 114.27 0H102.532V12.6695H107.463V8.32715ZM107.463 3.08224H113.124C114.218 3.08224 114.617 3.55905 114.617 4.15506V4.17209C114.617 4.78513 114.2 5.26194 113.124 5.26194H107.463V3.08224Z" fill="black"/>
<rect width="5.66524" height="12.6695" rx="2.83262" fill="#377BFF"/>
</svg>
