<svg width="70" height="70" viewBox="0 0 70 70" fill="none" xmlns="http://www.w3.org/2000/svg">
<g clip-path="url(#clip0_32_1431)">
<path d="M57.9206 21.798L69.5993 10.1194C70.1296 9.59408 70.1338 8.73829 69.6085 8.20775C69.3657 7.96258 69.0385 7.81947 68.6936 7.80798L68.7342 7.88909L62.3812 7.67282L62.1649 1.31985C62.1398 0.573719 61.5146 -0.0107197 60.7685 0.0144556C60.4236 0.026114 60.0962 0.169056 59.8535 0.414219L48.1884 12.0253C47.9252 12.2902 47.7832 12.6523 47.7964 13.0255V14.3772C33.9272 4.82294 14.939 8.32095 5.38467 22.19C-4.16961 36.0591 -0.671761 55.0475 13.1975 64.6018C27.0665 74.1561 46.0549 70.658 55.6092 56.789C62.7852 46.3723 62.7852 32.6068 55.6092 22.19H56.9609C57.3201 22.192 57.6655 22.051 57.9206 21.798ZM58.3261 39.5052C58.3464 54.8686 45.9083 67.3395 30.5449 67.3597C15.1816 67.38 2.71068 54.9419 2.69041 39.5785C2.67013 24.2152 15.1082 11.7443 30.4716 11.724C36.8328 11.7156 43.0047 13.8877 47.9586 17.8781L48.0262 20.1354L42.6194 25.5422C34.9281 18.8011 23.2284 19.5716 16.4873 27.2629C9.74625 34.9542 10.5167 46.654 18.208 53.395C25.8993 60.1361 37.5991 59.3656 44.3401 51.6743C50.3968 44.7638 50.4699 34.4573 44.5118 27.4616L49.9186 22.0548L52.1489 22.1359C56.1242 27.0542 58.3031 33.1813 58.3261 39.5052ZM29.6432 40.4108C30.1703 40.935 31.0219 40.935 31.5491 40.4108L34.2525 37.7075C34.5159 38.2512 34.6544 38.8469 34.658 39.4511C34.658 41.6907 32.8425 43.5062 30.6029 43.5062C28.3633 43.5062 26.5478 41.6907 26.5478 39.4511C26.5478 37.2115 28.3633 35.3961 30.6029 35.3961C31.2071 35.3996 31.8029 35.5382 32.3466 35.8016L29.6432 38.505C29.1191 39.0321 29.1191 39.8837 29.6432 40.4108ZM34.32 33.8146C31.2074 31.7546 27.0141 32.6078 24.9542 35.7205C22.8942 38.8331 23.7474 43.0264 26.86 45.0863C29.9727 47.1463 34.166 46.2931 36.2259 43.1805C37.7226 40.9189 37.7226 37.9818 36.2259 35.7205L42.633 29.3134C48.2498 35.9827 47.3963 45.9425 40.7271 51.5593C34.0578 57.1761 24.098 56.3226 18.4812 49.6534C12.8644 42.9841 13.7179 33.0243 20.3871 27.4075C26.2639 22.4583 34.8502 22.4583 40.7271 27.4075L34.32 33.8146ZM50.7566 19.2974L50.5674 13.5392L59.6237 4.48282L59.7724 8.98396C59.7724 9.73043 60.3777 10.3357 61.1241 10.3357L65.6253 10.4843L56.5149 19.4866L50.7566 19.2974Z" fill="#F673AD"/>
</g>
<defs>
<clipPath id="clip0_32_1431">
<rect width="70" height="70" fill="white"/>
</clipPath>
</defs>
</svg>
