<svg width="24" height="24" viewBox="0 0 24 24" fill="none" xmlns="http://www.w3.org/2000/svg">
<path fill-rule="evenodd" clip-rule="evenodd" d="M22 6C22 3.79086 20.2091 2 18 2H6C3.79086 2 2 3.79086 2 6V18C2 20.2091 3.79086 22 6 22H18C20.2091 22 22 20.2091 22 18V6ZM6 4H18L18.1493 4.00549C19.1841 4.08183 20 4.94564 20 6V18L19.9945 18.1493C19.9182 19.1841 19.0544 20 18 20H6L5.85074 19.9945C4.81588 19.9182 4 19.0544 4 18V6L4.00549 5.85074C4.08183 4.81588 4.94564 4 6 4Z" fill="#0A1629"/>
<path fill-rule="evenodd" clip-rule="evenodd" d="M18.3638 7.8787C18.7264 8.24133 18.7523 8.81318 18.4415 9.2057L18.3638 9.29292L11.2927 16.364C10.9301 16.7266 10.3583 16.7525 9.96575 16.4417L9.87853 16.364L5.63589 12.1213C5.24536 11.7308 5.24536 11.0977 5.63589 10.7071C5.99852 10.3445 6.57036 10.3186 6.96288 10.6294L7.0501 10.7071L10.5859 14.2418L16.9496 7.8787C17.3122 7.51607 17.8841 7.49017 18.2766 7.801L18.3638 7.8787Z" fill="#3F8CFF"/>
</svg>
