<svg width="16" height="5" viewBox="0 0 16 5" fill="none" xmlns="http://www.w3.org/2000/svg">
<g opacity="0.1">
<path d="M12.9738 4.37027C13.9934 4.37027 14.82 3.54372 14.82 2.52412C14.82 1.50453 13.9934 0.677979 12.9738 0.677979C11.9542 0.677979 11.1277 1.50453 11.1277 2.52412C11.1277 3.54372 11.9542 4.37027 12.9738 4.37027Z" fill="#222222"/>
<path d="M7.43551 4.37027C8.45511 4.37027 9.28166 3.54372 9.28166 2.52412C9.28166 1.50453 8.45511 0.677979 7.43551 0.677979C6.41591 0.677979 5.58936 1.50453 5.58936 2.52412C5.58936 3.54372 6.41591 4.37027 7.43551 4.37027Z" fill="#222222"/>
<path d="M1.89694 4.37027C2.91655 4.37027 3.7431 3.54372 3.7431 2.52412C3.7431 1.50453 2.91655 0.677979 1.89694 0.677979C0.877336 0.677979 0.0507812 1.50453 0.0507812 2.52412C0.0507812 3.54372 0.877336 4.37027 1.89694 4.37027Z" fill="#222222"/>
</g>
</svg>
