<svg width="24" height="24" viewBox="0 0 24 24" fill="none" xmlns="http://www.w3.org/2000/svg">
<path fill-rule="evenodd" clip-rule="evenodd" d="M11.5 3.00009H12L12.3221 3.02008C17.0213 3.41097 20.7372 7.21075 21.0001 12.0002L21.0001 12.4977C21.0038 13.9751 20.6586 15.4325 19.9945 16.7473C18.3862 19.9654 15.098 21.9988 11.5026 22.0002C10.2715 22.0034 9.0542 21.7643 7.91951 21.299L7.65 21.1822L6.07545 21.7559C4.57418 22.3025 2.91973 21.5757 2.29523 20.1272L2.23014 19.9633C1.98569 19.2918 1.98891 18.5552 2.23923 17.886L2.815 16.3442L2.70123 16.0807C2.28249 15.0596 2.04689 13.9717 2.00629 12.8682L2 12.4998C2.00139 8.90224 4.03487 5.61406 7.24915 4.00763C8.56776 3.34159 10.0251 2.99639 11.5 3.00009ZM11.9567 4.99923L11.4975 5.00008C10.335 4.99717 9.18834 5.26879 8.14706 5.79473C5.60648 7.06447 4.0011 9.6604 4 12.5028C3.99697 13.6652 4.26854 14.8118 4.7926 15.8494C4.91847 16.0986 4.93444 16.3891 4.83663 16.6505L4.11249 18.5866C4.02905 18.8097 4.02797 19.0552 4.10946 19.279C4.2984 19.798 4.87227 20.0655 5.39123 19.8766L7.35789 19.1606C7.61737 19.0661 7.90437 19.0831 8.15085 19.2076C9.18838 19.7317 10.335 20.0033 11.4996 20.0002C14.3398 19.9991 16.9358 18.3937 18.2074 15.8494C18.7314 14.8119 19.003 13.6652 19.0001 12.5002L19.0017 12.0553C18.7917 8.25238 15.7581 5.21499 11.9567 4.99923ZM11.9567 4.99923L11.958 4.99922L11.9449 4.99857L11.9567 4.99923ZM7 11.0002C7 10.4479 7.44772 10.0002 8 10.0002H15C15.5523 10.0002 16 10.4479 16 11.0002C16 11.5525 15.5523 12.0002 15 12.0002H8C7.44772 12.0002 7 11.5525 7 11.0002ZM10 14.0002C9.44772 14.0002 9 14.4479 9 15.0002C9 15.5525 9.44772 16.0002 10 16.0002H13C13.5523 16.0002 14 15.5525 14 15.0002C14 14.4479 13.5523 14.0002 13 14.0002H10Z" fill="#0A1629"/>
</svg>
