<svg width="24" height="24" viewBox="0 0 24 24" fill="none" xmlns="http://www.w3.org/2000/svg">
<path fill-rule="evenodd" clip-rule="evenodd" d="M16.9454 7.29971C15.8638 4.46595 13.2943 2.41687 10.2319 2.00855C6.79544 1.66436 3.50229 3.47237 1.91194 6.53946C0.54022 9.39612 0.779174 13.7656 2.46209 16.346C2.76378 16.8086 3.38337 16.9391 3.84597 16.6374C4.30857 16.3357 4.439 15.7161 4.13731 15.2535C2.84069 13.2654 2.64235 9.6385 3.70122 7.43251C4.9028 5.11622 7.41604 3.7364 10.0002 3.99481C12.585 4.33999 14.727 6.26044 15.3259 8.82701C15.4315 9.27959 15.835 9.59978 16.2997 9.59978H17.4997L17.6807 9.60532C19.1254 9.69364 20.4744 10.8288 20.9419 12.3871C21.154 13.3923 20.9528 14.4384 20.3359 15.4959C20.0576 15.973 20.2188 16.5853 20.6958 16.8636C21.1729 17.1418 21.7852 16.9807 22.0635 16.5036C22.9212 15.0333 23.2191 13.4843 22.8775 11.8902L22.8002 11.6489C21.9833 9.25936 19.8497 7.59978 17.4997 7.59978L17.0517 7.59878L16.9454 7.29971ZM12.993 12.8832C12.9352 12.3858 12.5125 11.9998 11.9997 11.9998C11.4474 11.9998 10.9997 12.4475 10.9997 12.9998V19.5848L8.70681 17.2927L8.6126 17.2095C8.22031 16.9045 7.65308 16.9322 7.29259 17.2927C6.90207 17.6832 6.90207 18.3164 7.29259 18.7069L11.2926 22.7069L11.3868 22.7901C11.7791 23.0951 12.3463 23.0674 12.7068 22.7069L16.7068 18.7069L16.79 18.6127C17.095 18.2204 17.0673 17.6532 16.7068 17.2927L16.6126 17.2095C16.2203 16.9045 15.6531 16.9322 15.2926 17.2927L12.9997 19.5848V12.9998L12.993 12.8832Z" fill="#0A1629"/>
</svg>
