<svg width="24" height="24" viewBox="0 0 24 24" fill="none" xmlns="http://www.w3.org/2000/svg">
<path fill-rule="evenodd" clip-rule="evenodd" d="M20.6482 6.12599C19.2 4.32932 16.8796 3.58315 14.7141 4.22945C14.1849 4.3874 13.8839 4.94446 14.0419 5.47368C14.1998 6.00289 14.7569 6.30386 15.2861 6.14591C16.6658 5.73414 18.1476 6.21066 19.091 7.3811C20.0522 8.57361 20.2727 10.2627 19.6496 11.6945C19.035 13.1067 17.7178 13.9999 16.2806 14.0001C16.2572 14.0001 16.2341 14.0009 16.2111 14.0025C16.1406 14.0009 16.07 14.0001 15.9993 14.0001C15.447 14.0006 14.9997 14.4486 15.0001 15.0009C15.0006 15.5532 15.4486 16.0006 16.0009 16.0001C18.4386 15.9982 20.7363 17.3112 22.1571 19.538C22.4542 20.0036 23.0724 20.1402 23.538 19.8431C24.0036 19.5461 24.1402 18.9278 23.8431 18.4622C22.7951 16.8196 21.3504 15.5645 19.7001 14.8099C20.457 14.2179 21.0763 13.4279 21.4834 12.4926C22.4023 10.3812 22.0786 7.9006 20.6482 6.12599ZM8.00012 4.00012C4.68642 4.00012 2.00012 6.68641 2.00012 10.0001C2.00012 11.9504 2.93062 13.6833 4.37188 14.7792C2.69233 15.5301 1.2213 16.7968 0.157467 18.4617C-0.139911 18.9271 -0.00371301 19.5454 0.461674 19.8428C0.92706 20.1402 1.5454 20.004 1.84278 19.5386C3.26488 17.313 5.56225 16.0002 8.00003 16.0001C10.4378 16 12.7353 17.3126 14.1575 19.538C14.4549 20.0034 15.0733 20.1396 15.5386 19.8421C16.004 19.5447 16.1402 18.9264 15.8427 18.461C14.7789 16.7964 13.3079 15.5298 11.6285 14.7791C13.0697 13.6832 14.0001 11.9503 14.0001 10.0001C14.0001 6.68641 11.3138 4.00012 8.00012 4.00012ZM4.00012 10.0001C4.00012 12.2092 5.79092 14 8 14.0001H8.00012C10.2093 14.0001 12.0001 12.2093 12.0001 10.0001C12.0001 7.79098 10.2093 6.00012 8.00012 6.00012C5.79099 6.00012 4.00012 7.79098 4.00012 10.0001Z" fill="#0A1629"/>
</svg>
